  0
SECTION
  2
BLOCKS
  0
ENDSEC
  0
SECTION
  2
ENTITIES
  0
LINE
  8
0
 10
-17.5
 20
7
 11
-22.5
 21
7
  0
LINE
  8
0
 10
-22.5
 20
7
 11
-22.5
 21
-7
  0
LINE
  8
0
 10
-22.5
 20
-7
 11
-17.5
 21
-7
  0
LINE
  8
0
 10
-17.5
 20
-7
 11
-17.5
 21
7
  0
LINE
  8
0
 10
38.5
 20
7
 11
33.5
 21
7
  0
LINE
  8
0
 10
33.5
 20
7
 11
33.5
 21
-7
  0
LINE
  8
0
 10
33.5
 20
-7
 11
38.5
 21
-7
  0
LINE
  8
0
 10
38.5
 20
-7
 11
38.5
 21
7
  0
LINE
  8
0
 10
30.5
 20
7
 11
25.5
 21
7
  0
LINE
  8
0
 10
25.5
 20
7
 11
25.5
 21
-7
  0
LINE
  8
0
 10
25.5
 20
-7
 11
30.5
 21
-7
  0
LINE
  8
0
 10
30.5
 20
-7
 11
30.5
 21
7
  0
LINE
  8
0
 10
22.5
 20
7
 11
17.5
 21
7
  0
LINE
  8
0
 10
17.5
 20
7
 11
17.5
 21
-7
  0
LINE
  8
0
 10
17.5
 20
-7
 11
22.5
 21
-7
  0
LINE
  8
0
 10
22.5
 20
-7
 11
22.5
 21
7
  0
LINE
  8
0
 10
14.5
 20
7
 11
9.5
 21
7
  0
LINE
  8
0
 10
9.5
 20
7
 11
9.5
 21
-7
  0
LINE
  8
0
 10
9.5
 20
-7
 11
14.5
 21
-7
  0
LINE
  8
0
 10
14.5
 20
-7
 11
14.5
 21
7
  0
LINE
  8
0
 10
6.5
 20
7
 11
1.5
 21
7
  0
LINE
  8
0
 10
1.5
 20
7
 11
1.5
 21
-7
  0
LINE
  8
0
 10
1.5
 20
-7
 11
6.5
 21
-7
  0
LINE
  8
0
 10
6.5
 20
-7
 11
6.5
 21
7
  0
LINE
  8
0
 10
-1.5
 20
7
 11
-6.5
 21
7
  0
LINE
  8
0
 10
-6.5
 20
7
 11
-6.5
 21
-7
  0
LINE
  8
0
 10
-6.5
 20
-7
 11
-1.5
 21
-7
  0
LINE
  8
0
 10
-1.5
 20
-7
 11
-1.5
 21
7
  0
LINE
  8
0
 10
-9.5
 20
7
 11
-14.5
 21
7
  0
LINE
  8
0
 10
-14.5
 20
7
 11
-14.5
 21
-7
  0
LINE
  8
0
 10
-14.5
 20
-7
 11
-9.5
 21
-7
  0
LINE
  8
0
 10
-9.5
 20
-7
 11
-9.5
 21
7
  0
ENDSEC
  0
SECTION
  2
OBJECTS
  0
DICTIONARY
  0
ENDSEC
  0
EOF
