<?xml version="1.0" standalone="no"?>
<!DOCTYPE svg PUBLIC "-//W3C//DTD SVG 1.1//EN" "http://www.w3.org/Graphics/SVG/1.1/DTD/svg11.dtd">
<svg width="62mm" height="14mm" viewBox="-23 -7 62 14" xmlns="http://www.w3.org/2000/svg" version="1.1">
<title>OpenSCAD Model</title>
<path d="
M -17.5,-7 L -22.5,-7 L -22.5,7 L -17.5,7 z
M 38.5,-7 L 33.5,-7 L 33.5,7 L 38.5,7 z
M 30.5,-7 L 25.5,-7 L 25.5,7 L 30.5,7 z
M 22.5,-7 L 17.5,-7 L 17.5,7 L 22.5,7 z
M 14.5,-7 L 9.5,-7 L 9.5,7 L 14.5,7 z
M 6.5,-7 L 1.5,-7 L 1.5,7 L 6.5,7 z
M -1.5,-7 L -6.5,-7 L -6.5,7 L -1.5,7 z
M -9.5,-7 L -14.5,-7 L -14.5,7 L -9.5,7 z
" stroke="black" fill="lightgray" stroke-width="0.5"/>
</svg>
