  0
SECTION
  2
BLOCKS
  0
ENDSEC
  0
SECTION
  2
ENTITIES
  0
LINE
  8
0
 10
-17.5553
 20
7
 11
-22.4447
 21
7
  0
LINE
  8
0
 10
-22.4447
 20
7
 11
-22.4447
 21
-7
  0
LINE
  8
0
 10
-22.4447
 20
-7
 11
-17.5553
 21
-7
  0
LINE
  8
0
 10
-17.5553
 20
-7
 11
-17.5553
 21
7
  0
LINE
  8
0
 10
-9.55531
 20
7
 11
-14.4447
 21
7
  0
LINE
  8
0
 10
-14.4447
 20
7
 11
-14.4447
 21
-7
  0
LINE
  8
0
 10
-14.4447
 20
-7
 11
-9.55531
 21
-7
  0
LINE
  8
0
 10
-9.55531
 20
-7
 11
-9.55531
 21
7
  0
LINE
  8
0
 10
-1.55531
 20
7
 11
-6.44467
 21
7
  0
LINE
  8
0
 10
-6.44467
 20
7
 11
-6.44467
 21
-7
  0
LINE
  8
0
 10
-6.44467
 20
-7
 11
-1.55531
 21
-7
  0
LINE
  8
0
 10
-1.55531
 20
-7
 11
-1.55531
 21
7
  0
LINE
  8
0
 10
6.44467
 20
7
 11
1.55531
 21
7
  0
LINE
  8
0
 10
1.55531
 20
7
 11
1.55531
 21
-7
  0
LINE
  8
0
 10
1.55531
 20
-7
 11
6.44467
 21
-7
  0
LINE
  8
0
 10
6.44467
 20
-7
 11
6.44467
 21
7
  0
LINE
  8
0
 10
14.4447
 20
7
 11
9.55531
 21
7
  0
LINE
  8
0
 10
9.55531
 20
7
 11
9.55531
 21
-7
  0
LINE
  8
0
 10
9.55531
 20
-7
 11
14.4447
 21
-7
  0
LINE
  8
0
 10
14.4447
 20
-7
 11
14.4447
 21
7
  0
LINE
  8
0
 10
22.4447
 20
7
 11
17.5553
 21
7
  0
LINE
  8
0
 10
17.5553
 20
7
 11
17.5553
 21
-7
  0
LINE
  8
0
 10
17.5553
 20
-7
 11
22.4447
 21
-7
  0
LINE
  8
0
 10
22.4447
 20
-7
 11
22.4447
 21
7
  0
LINE
  8
0
 10
30.4447
 20
7
 11
25.5553
 21
7
  0
LINE
  8
0
 10
25.5553
 20
7
 11
25.5553
 21
-7
  0
LINE
  8
0
 10
25.5553
 20
-7
 11
30.4447
 21
-7
  0
LINE
  8
0
 10
30.4447
 20
-7
 11
30.4447
 21
7
  0
LINE
  8
0
 10
38.4447
 20
7
 11
33.5553
 21
7
  0
LINE
  8
0
 10
33.5553
 20
7
 11
33.5553
 21
-7
  0
LINE
  8
0
 10
33.5553
 20
-7
 11
38.4447
 21
-7
  0
LINE
  8
0
 10
38.4447
 20
-7
 11
38.4447
 21
7
  0
ENDSEC
  0
SECTION
  2
OBJECTS
  0
DICTIONARY
  0
ENDSEC
  0
EOF
